<svg width="623" height="623" viewBox="0 0 623 623" fill="none" xmlns="http://www.w3.org/2000/svg">
<circle cx="311.5" cy="311.5" r="294.887" stroke="#AE7635" stroke-width="33.2267"/>
<path d="M342.65 224.587L319.46 178.901C319.46 178.901 359.263 175.094 434.023 178.901C508.783 182.708 528.165 294.848 490.439 333.266C452.713 371.685 405.988 365.801 405.988 365.801L384.183 320.114H422.948C475.21 320.114 473.48 226.664 422.948 224.587H342.65Z" fill="#AE7635" stroke="#AE7635" stroke-width="2.07667"/>
<path d="M222.549 204.167L113.524 446.099H167.864C181.985 395.982 250.123 391.067 282.427 394.874C301.463 394.874 301.117 348.149 282.427 348.149H213.551C246.777 279.758 233.394 223.665 222.549 204.167Z" fill="#AE7635" stroke="#AE7635" stroke-width="2.07667"/>
<path d="M301.463 203.129C287.618 172.671 238.124 177.516 238.124 177.516C238.124 177.516 318.768 365.455 338.843 408.719C358.917 451.983 409.796 445.06 409.796 445.06C409.796 445.06 315.307 233.586 301.463 203.129Z" fill="#AE7635" stroke="#AE7635" stroke-width="2.07667"/>
</svg>
